<svg viewBox="0 0 24 24" fill="none" xmlns="http://www.w3.org/2000/svg">
    <circle cx="12.5" cy="12.5" r="11.5" fill="#F5F5F5" />
    <g clip-path="url(#clip0_3787_43597)">
        <path
            d="M12 0C9.62663 0 7.30655 0.703788 5.33316 2.02236C3.35977 3.34094 1.8217 5.21509 0.913451 7.4078C0.00519941 9.60051 -0.232441 12.0133 0.230582 14.3411C0.693605 16.6689 1.83649 18.807 3.51472 20.4853C5.19295 22.1635 7.33115 23.3064 9.65892 23.7694C11.9867 24.2324 14.3995 23.9948 16.5922 23.0866C18.7849 22.1783 20.6591 20.6402 21.9776 18.6668C23.2962 16.6935 24 14.3734 24 12C23.9951 8.8189 22.7293 5.76949 20.4799 3.52011C18.2305 1.27073 15.1811 0.00488274 12 0V0ZM13.3846 18.9046V19.8462C13.3846 20.2134 13.2387 20.5656 12.9791 20.8252C12.7194 21.0849 12.3672 21.2308 12 21.2308C11.6328 21.2308 11.2806 21.0849 11.0209 20.8252C10.7613 20.5656 10.6154 20.2134 10.6154 19.8462V18.9231H9.23077C8.86355 18.9231 8.51137 18.7772 8.2517 18.5175C7.99204 18.2579 7.84616 17.9057 7.84616 17.5385C7.84616 17.1712 7.99204 16.8191 8.2517 16.5594C8.51137 16.2997 8.86355 16.1538 9.23077 16.1538H12.9231C13.212 16.1538 13.489 16.0391 13.6933 15.8348C13.8976 15.6305 14.0123 15.3535 14.0123 15.0646C14.0158 14.8459 13.9522 14.6313 13.8301 14.4497C13.708 14.2682 13.5332 14.1284 13.3292 14.0492L9.52616 12.5169C8.74287 12.1862 8.09077 11.6059 7.6712 10.8664C7.25162 10.1269 7.08807 9.26947 7.20596 8.42742C7.32385 7.58537 7.71657 6.80584 8.3231 6.20997C8.92963 5.61409 9.716 5.23525 10.56 5.13231V4.15385C10.56 3.78662 10.7059 3.43444 10.9656 3.17478C11.2252 2.91511 11.5774 2.76923 11.9446 2.76923C12.3118 2.76923 12.664 2.91511 12.9237 3.17478C13.1834 3.43444 13.3292 3.78662 13.3292 4.15385V5.07692H14.7138C15.0811 5.07692 15.4333 5.2228 15.6929 5.48247C15.9526 5.74213 16.0985 6.09432 16.0985 6.46154C16.0985 6.82876 15.9526 7.18094 15.6929 7.44061C15.4333 7.70028 15.0811 7.84615 14.7138 7.84615H11.0215C10.7302 7.79229 10.4294 7.85637 10.1853 8.02429C9.94125 8.19221 9.77386 8.45021 9.72001 8.74154C9.66615 9.03287 9.73022 9.33366 9.89814 9.57775C10.0661 9.82183 10.3241 9.98922 10.6154 10.0431L14.4185 11.5569C15.1891 11.8982 15.8276 12.4813 16.2372 13.218C16.6467 13.9546 16.805 14.8047 16.6882 15.6394C16.5713 16.4741 16.1856 17.248 15.5895 17.8438C14.9934 18.4397 14.2194 18.825 13.3846 18.9415V18.9046Z"
            fill="url(#paint0_linear_3787_43597)" />
    </g>
    <defs>
        <linearGradient id="paint0_linear_3787_43597" x1="20.85" y1="-6.04346" x2="-4.43773"
            y2="9.26047" gradientUnits="userSpaceOnUse">
            <stop stop-color="#FFD6D8" />
            <stop offset="0.543269" stop-color="#EB3138" />
            <stop offset="1" stop-color="#5C0206" />
        </linearGradient>
        <clipPath id="clip0_3787_43597">
            <rect width="24" height="24" fill="white" />
        </clipPath>
    </defs>
</svg>