<svg width="39" height="18" viewBox="0 0 39 18" fill="none" xmlns="http://www.w3.org/2000/svg">
<g clip-path="url(#clip0_3787_43544)">
<path d="M39 9.58753C37.9889 9.1167 35.7644 8.45756 34.9556 9.58753C33.9444 11 32.0667 9.44628 31.2 8.03381C30.3333 6.62135 28.7444 6.4801 27.4444 8.03381C26.1444 9.58753 25.1333 11 23.9778 11C22.8222 11 21.3778 8.03381 19.6444 8.03381C17.9111 8.03381 16.9 8.8813 15.3111 8.03381C13.7222 7.18633 13.1444 3.93765 11.7 3.93765C10.2556 3.93765 9.38889 3.23141 8.37778 2.38393C7.36667 1.53645 6.78889 0.688968 5.48889 1.11271C4.18889 1.53645 2.74444 5.49137 -1.69873e-06 3.93765" stroke="#ED1D25" stroke-width="2"/>
<path d="M34.7294 10.4195C35.5265 9.2195 37.7185 9.91949 38.7148 10.4195V18.9998H0.284187V4.4195C2.98857 6.0695 4.41193 1.8695 5.69295 1.4195C6.97397 0.969498 7.54331 1.8695 8.53966 2.7695C9.53601 3.6695 10.39 4.4195 11.8134 4.4195C13.2367 4.4195 13.8061 7.8695 15.3718 8.7695C16.9375 9.6695 17.9338 8.7695 19.6419 8.7695C21.3499 8.7695 22.7732 11.9195 23.9119 11.9195C25.0506 11.9195 26.047 10.4195 27.328 8.7695C28.609 7.1195 30.1747 7.2695 31.0287 8.7695C31.8827 10.2695 33.7331 11.9195 34.7294 10.4195Z" fill="url(#paint0_linear_3787_43544)"/>
</g>
<defs>
<linearGradient id="paint0_linear_3787_43544" x1="16.0835" y1="13.7498" x2="17.0312" y2="3.10815" gradientUnits="userSpaceOnUse">
<stop stop-color="white" stop-opacity="0"/>
<stop offset="1" stop-color="#ED1D25"/>
</linearGradient>
<clipPath id="clip0_3787_43544">
<rect width="39" height="18" fill="white" transform="matrix(-1 0 0 1 39 0)"/>
</clipPath>
</defs>
</svg>
