<svg viewBox="0 0 80 80" fill="none" xmlns="http://www.w3.org/2000/svg">
    <path
        d="M80 40C80 62.0914 62.0914 80 40 80C17.9086 80 0 62.0914 0 40C0 17.9086 17.9086 0 40 0C62.0914 0 80 17.9086 80 40Z"
        fill="#0052B5" />
    <path
        d="M30 22V1.26017C31.6288 0.840944 33.2978 0.521729 35 0.309469C36.638 0.105217 38.3067 0 40 0C41.6933 0 43.362 0.105217 45 0.309469C46.7022 0.521729 48.3712 0.840944 50 1.26017V27.5L67 10.487C68.8325 12.1644 71.5054 15.5102 73 17.5L60 30H78.7398C79.159 31.6288 79.4783 33.2978 79.6905 35C79.8948 36.638 80 38.3067 80 40C80 41.6933 79.8948 43.362 79.6905 45C79.4783 46.7022 79.159 48.3712 78.7398 50H57L72.0029 64C69.8528 66.8626 67.3274 69.4273 64.5 71.6212L50 57V78.7398C48.3712 79.159 46.7022 79.4783 45 79.6905C43.362 79.8948 41.6933 80 40 80C38.3067 80 36.638 79.8948 35 79.6905C33.2978 79.4783 31.6288 79.159 30 78.7398L30 53L13.5 69.9631C11.2623 67.9825 9.24808 65.7552 7.5 63.3236L22 50H1.26017C0.840945 48.3712 0.521732 46.7022 0.309471 45C0.105217 43.362 0 41.6933 0 40C0 38.3067 0.105217 36.638 0.309469 35C0.521729 33.2978 0.840944 31.6288 1.26017 30H22.5L8 15.9961C10.2193 13.0422 12.8381 10.4056 15.7761 8.16644L30 22Z"
        fill="white" />
    <path d="M30 30L11.7449 11.6866C10.7796 12.6499 9.86331 13.6622 9 14.7196L25 30H30Z"
        fill="#D90026" />
    <path d="M50 30L68.2551 11.6866C69.2204 12.6499 70.1367 13.6622 71 14.7196L55 30H50Z"
        fill="#D90026" />
    <path d="M50 50.3433L68.2551 68.6567C69.2204 67.6934 70.1367 66.6811 71 65.6237L55 50.3433H50Z"
        fill="#D90026" />
    <path d="M30 50.3433L11.7449 68.6567C10.7796 67.6934 9.86331 66.6811 9 65.6237L25 50.3433H30Z"
        fill="#D90026" />
    <path
        d="M0.309469 35C0.105217 36.638 0 38.3067 0 40C0 41.6933 0.105217 43.362 0.309471 45H35V79.6905C36.638 79.8948 38.3067 80 40 80C41.6933 80 43.362 79.8948 45 79.6905V45H79.6905C79.8948 43.362 80 41.6933 80 40C80 38.3067 79.8948 36.638 79.6905 35H45V0.309469C43.0428 0.0150664 42.0392 0 40 0C38.3067 0 36.638 0.105217 35 0.309469V35H0.309469Z"
        fill="#D90026" />
</svg>