<svg width="39" height="18" viewBox="0 0 39 18" fill="none" xmlns="http://www.w3.org/2000/svg">
<g clip-path="url(#clip0_3787_43529)">
<path d="M0.285156 9.41951C1.28151 8.9195 3.47348 8.21951 4.27056 9.41951C5.26691 10.9195 7.11727 9.26951 7.97129 7.76951C8.8253 6.2695 10.391 6.1195 11.672 7.76951C12.953 9.41951 13.9494 10.9195 15.0881 10.9195C16.2268 10.9195 17.6501 7.76951 19.3581 7.76951C21.0662 7.76951 22.0625 8.66951 23.6282 7.76951C25.1939 6.8695 25.7633 3.4195 27.1866 3.4195C28.61 3.4195 29.464 2.6695 30.4603 1.7695C31.4567 0.869499 32.026 -0.0305017 33.3071 0.419499C34.5881 0.869499 36.0114 5.0695 38.7158 3.4195" stroke="#4DC88F" stroke-width="2"/>
<path d="M4.27056 9.4195C3.47348 8.2195 1.28151 8.91949 0.285156 9.4195V17.9998H38.7158V3.4195C36.0114 5.0695 34.5881 0.869499 33.3071 0.419499C32.026 -0.0305016 31.4567 0.869499 30.4603 1.7695C29.464 2.6695 28.61 3.4195 27.1866 3.4195C25.7633 3.4195 25.1939 6.8695 23.6282 7.7695C22.0625 8.6695 21.0662 7.7695 19.3581 7.7695C17.6501 7.7695 16.2268 10.9195 15.0881 10.9195C13.9494 10.9195 12.953 9.4195 11.672 7.7695C10.391 6.1195 8.8253 6.2695 7.97129 7.7695C7.11727 9.2695 5.26691 10.9195 4.27056 9.4195Z" fill="url(#paint0_linear_3787_43529)"/>
</g>
<defs>
<linearGradient id="paint0_linear_3787_43529" x1="22.9165" y1="12.7498" x2="21.9688" y2="2.10815" gradientUnits="userSpaceOnUse">
<stop stop-color="white" stop-opacity="0"/>
<stop offset="1" stop-color="#4DC88F"/>
</linearGradient>
<clipPath id="clip0_3787_43529">
<rect width="39" height="18" fill="white"/>
</clipPath>
</defs>
</svg>
